<?xml version="1.0" encoding="UTF-8"?><svg id="a" xmlns="http://www.w3.org/2000/svg" width="130.19" height="166.94" viewBox="0 0 130.19 166.94"><defs><style>.b{stroke-width:1.5px;}.b,.c,.d{fill:none;stroke:#040000;stroke-miterlimit:10;}.c{stroke-width:1.8px;}.d{stroke-width:2px;}</style></defs><g><g><path d="M92.13,156.44c-.82-4.35-1.59-8.45-1.84-9.95-.53-3.3-1.61-7.43-2.38-9.86-.27-.86-.61-1.73-.97-2.66-.64-1.66-1.31-3.37-1.66-5.16-.52-2.68-.23-4.86,.88-6.47,.55-.8,1.26-1.43,2.16-1.93-.32,.73-.5,1.5-.5,2.25,0,.5,.4,.9,.9,.9s.9-.4,.9-.9c0-1.66,1.39-3.6,3.07-4.36,2.65-.36,5.08-1.3,7.46-2.89,1.23-.82,2.93-2.14,4.65-3.56,1.99-1.13,4.76-2.28,6.75-3.1,.54-.22,1.02-.43,1.44-.6,.18-.08,.33-.21,.43-.38,.49-.85,2.15-2.82,3.65-4.18,.3-.27,.38-.71,.2-1.07-.14-.27-.25-1.19,.56-4.26,.11-.41-.09-.84-.47-1.03-.64-.32-1.9-2.44-2.09-3.13-.2-.72-.26-1.21,.05-1.52,.14-.05,.57-.07,.82,.2,.66,.72,2.25,2.5,2.86,3.26,.38,.47,.49,.87,.68,1.59,.06,.23,.13,.49,.22,.77,.18,.59,.45,1.31,.72,2.01,.3,.78,.6,1.58,.76,2.17,.25,.93,.06,1.86-.51,2.43l-.64,.63c-1.9,1.89-3.98,3.96-4.46,4.57-.62,.79-1.44,1.51-1.6,1.64-.38,.32-.42,.89-.1,1.27,.18,.21,.43,.31,.68,.31,.21,0,.42-.07,.58-.22,.18-.16,1.12-.97,1.85-1.9,.45-.58,3.16-3.26,4.31-4.4l.64-.64c1.04-1.04,1.41-2.6,.98-4.17-.18-.67-.51-1.52-.82-2.34-.25-.67-.52-1.36-.68-1.89-.08-.27-.15-.51-.21-.73-.23-.82-.41-1.47-1.02-2.24-.66-.83-2.29-2.65-2.94-3.36-.13-.14-.27-.25-.42-.36-.07-.33,0-.75,.3-1.05,.17-.17,.36-.2,.5-.19,.21,0,.38,.09,.45,.17l.29,.33c.74,.82,2.3,2.55,2.8,3.1,.39,.43,2.03,3.57,2.95,5.89,0,.07,.02,.14,.04,.21,.87,2.78,.96,5.06,.65,5.47-1.02,1.02-5.25,5.03-6.64,6.23-.61,.53-1.69,1.7-2.64,2.74-.39,.43-.75,.82-.99,1.07-.83,.87-2.46,2.09-4.46,3.36-1.13,.71-3.23,2.21-5.09,3.52-.73,.52-1.43,1.01-2,1.41-2.03,1.42-3.53,3.19-4.43,4.43-1.31,1.79-2.06,3.48-1.48,5.93,.48,2.03,2.38,7.89,4.26,12.42,1.5,3.63,5.4,12.21,9.28,20.7h2.64c-.59-1.29-1.18-2.58-1.76-3.86,.03-.13,.04-.27,.03-.41-.83-7.35-2.33-13.57-4.58-19-1.52-3.66-4.3-8.75-7.57-12.19,.16-.74,.55-1.41,1.12-2.2,.8-1.09,2.11-2.64,3.87-3.88,.58-.4,1.27-.9,2.01-1.42,1.83-1.3,3.91-2.77,4.98-3.45,2.2-1.38,3.94-2.71,4.92-3.73,.25-.26,.62-.66,1.02-1.11,.82-.89,1.93-2.12,2.44-2.55,1.45-1.25,5.71-5.28,6.77-6.35,1.65-1.65,.51-6.06-.06-7.88-.04-.12-.1-.22-.16-.32-.03-.39-.05-.78-.08-1.16,.28-.11,.53-.31,.67-.61,.35-.75,.66-1.58,.91-2.47,1.79-6.28,3.18-16.98,1.19-26.45-1.8-8.56-3.85-18.27-8.54-25.55-4.98-7.73-12.3-11.68-20.59-11.12-.66,.04-1.16,.62-1.12,1.28,.04,.66,.61,1.16,1.28,1.12,7.38-.5,13.93,3.07,18.41,10.03,4.14,6.42,6.01,14.3,8.21,24.75,1.83,8.71,.67,18.51-.96,24.6-.18-.51-.46-1.03-.98-1.78-.11-.16-.23-.32-.35-.48,.08-.09,.14-.18,.18-.3,1.39-4.01,1.82-13.72,.1-22.43-.1-.49-.57-.8-1.06-.71-.49,.1-.8,.57-.71,1.06,1.65,8.34,1.18,17.05,.17,20.82-.57-.63-1.16-1.24-1.72-1.82l-.48-.5-.02-.02c.74-2.13,1.29-4.07,1.52-6.56,.15-1.54-.25-2.53-1.18-2.93-.83-.36-1.72-.03-2.46,.45-.13-4.99-1.15-13.65-4.95-20.16-.33-.57-1.07-.77-1.64-.43-.57,.33-.77,1.07-.43,1.64,3.1,5.31,4.21,12.36,4.53,17.15-1.98-1.48-4.12-3.85-5.38-7-1.58-3.96-2.4-7.6-2.5-16.51,0-.66-.54-1.19-1.2-1.19h-.01c-.66,0-1.19,.55-1.19,1.21,.1,9.29,.98,13.15,2.67,17.38,1.52,3.8,4.38,7.15,7.71,9.05,0,.6-.01,1.12-.04,1.51-.17,2.88-.75,6.99-1.04,8.16-.08,.33-.02,.65,.14,.92-.21,.38-.33,.8-.36,1.23-.43,.05-.82,.2-1.08,.45-1.24,1.13-.79,2.7-.6,3.38,.06,.22,.22,.59,.43,1.01-.25,.15-.46,.39-.55,.69-.26,.89-.55,1.72-.86,2.48l-.16,.38c-1.04,2.53-1.52,3.69-3.12,5.44-1.76,1.92-7.58,6.9-10.47,8.83-2.96,1.97-5.88,2.79-9.47,2.64-3.45-.14-6.71-1.82-9.7-4.97-2.91-3.07-6.51-8.1-7.23-10.68-.8-2.88-1.45-9.38-1.29-11.61,.05-.66-.45-1.24-1.11-1.28-.67-.05-1.24,.45-1.28,1.11-.18,2.45,.51,9.3,1.38,12.43,.12,.43,.31,.91,.54,1.42-.02,.07-.04,.13-.05,.21-.36,2.33-4.51,8.32-7.32,9.38-.62,.23-.94,.92-.7,1.54,.18,.48,.64,.78,1.12,.78,.14,0,.28-.02,.42-.08,2.98-1.12,6.51-5.66,8.08-9,1.6,2.58,3.81,5.41,5.72,7.43,2.88,3.04,6.04,4.88,9.4,5.5-1.3,.68-2.34,1.58-3.13,2.75-1.46,2.14-1.89,5-1.25,8.29,.39,1.99,1.12,3.89,1.77,5.56,.35,.89,.67,1.73,.92,2.52,.75,2.35,1.79,6.33,2.3,9.51v.02c-.06,.05-.12,.08-.19,.09-.92,.08-3.24-2.07-5.3-5.65l-.72-1.25c-3.31-5.78-8.3-14.48-13.38-20.25-.92-1.3-1.85-2.43-2.78-3.3-3.39-3.16-11.84-6.53-16.58-4.71-.62,.24-.93,.93-.69,1.55,.24,.62,.93,.93,1.55,.69,3.67-1.41,11.26,1.59,14.08,4.23,4.42,4.13,9.41,15.64,11.1,20.89,2.41,7.49,8.43,17.14,11.32,21.78l1.04,1.68c1.04,1.68,1.89,3.04,2.75,4.31h3.95c-.49-2.74-1.23-6.65-1.95-10.5Zm12.82-11.85c1.33,3.21,2.39,6.72,3.2,10.6-1.92-4.27-3.52-7.86-4.36-9.88-1.15-2.77-2.33-6.12-3.15-8.68,1.85,2.7,3.38,5.71,4.32,7.96Zm13.9-63.6c.12-.07,.24-.15,.34-.27,.36-.41,.71-.7,.98-.89,0,.07,0,.14-.02,.22-.2,2.11-.66,3.81-1.28,5.64-.19-.01-.36,0-.53,.03,.21-1.53,.4-3.26,.5-4.73Zm-.61,6.75c.26-.23,.61-.56,1.51,.38l.49,.5c1.13,1.17,2.4,2.49,3.2,3.64,.82,1.19,.87,1.53,1.02,2.69,.02,.13,.03,.3,.05,.48-.71-1.44-1.42-2.7-1.79-3.11-.5-.55-2.05-2.27-2.78-3.09l-.29-.33c-.34-.38-.85-.63-1.39-.72-.07-.16-.11-.36,0-.46Zm-7.19,18.48c1.9-2.07,2.49-3.52,3.58-6.15l.16-.38c.23-.56,.45-1.18,.66-1.81,.16,.19,.33,.37,.5,.52-.4,1.6-.69,3.15-.49,4.25-1.32,1.26-2.75,2.92-3.43,3.96-.35,.15-.74,.31-1.16,.48-.38,.16-.77,.32-1.18,.49,.56-.53,1.04-1,1.37-1.37Zm-21.63,55.14l-1.05-1.68c-2.84-4.56-8.76-14.04-11.07-21.24-.5-1.57-1.38-3.9-2.49-6.49,2.08,3.32,3.93,6.55,5.35,9.03l.72,1.25c.64,1.11,3.92,6.55,6.82,6.55,.06,0,.12,0,.17,0,.12,0,.24-.03,.37-.06,.36,2.02,.93,5.03,1.53,8.18,.45,2.39,.93,4.94,1.35,7.19-.53-.82-1.08-1.71-1.7-2.71Z"/><path d="M94.6,72.31c-2.46,1.25-5.08,1.22-5.83,1.18-.67-.04-1.23,.47-1.26,1.13s.47,1.23,1.13,1.26c.16,0,.38,.02,.67,.02,1.33,0,3.92-.19,6.39-1.45,1.47-.75,6.37-3.77,7.72-11.07,.49-2.66,1.19-7.9,.39-13.16-.1-.66-.72-1.1-1.37-1.01-.66,.1-1.11,.71-1.01,1.37,.75,4.91,.08,9.86-.38,12.37-.91,4.94-3.93,8.08-6.45,9.36Z"/><path d="M96.16,42.75c-1.29,8.19-6.19,20.65-9.05,24.35-1.84,2.38-3.69,4.56-5.99,5.07-.65,.14-1.05,.79-.91,1.43,.13,.56,.62,.94,1.17,.94,.09,0,.17,0,.26-.03,3.34-.75,5.66-3.75,7.36-5.94,3.05-3.94,8.15-16.71,9.52-25.44,.1-.65-.34-1.27-1-1.37-.65-.1-1.27,.34-1.37,1Z"/><path d="M69.92,86.55c.32,0,.63-.12,.87-.37,2.15-2.26,3.14-4.66,4.04-7.12,.92-2.51,1.72-5.36,2.45-8.06,1.3-4.81,4.1-12.44,13.43-23.06,.44-.5,.39-1.26-.11-1.69-.5-.44-1.26-.39-1.69,.11-9.67,11-12.59,18.98-13.95,24.02-.71,2.65-1.5,5.44-2.38,7.86-.84,2.3-1.68,4.36-3.52,6.29-.46,.48-.44,1.24,.04,1.7,.23,.22,.53,.33,.83,.33Z"/><path d="M58.75,90.92c.26,0,.52-.08,.74-.26,.52-.41,.61-1.17,.2-1.69-2.11-2.68-2.12-8.08-1.43-12.25,.72-4.33,2.39-12.74,5.44-20.46,3.06-7.72,9.65-16.44,15.01-19.85,5.12-3.26,13.07-5.37,17-3.09,.57,.33,1.31,.14,1.64-.44,.33-.57,.14-1.31-.44-1.64-4.95-2.87-13.73-.52-19.49,3.14-5.73,3.65-12.74,12.87-15.95,21-3.13,7.92-4.84,16.52-5.58,20.95-.38,2.27-1.36,9.99,1.91,14.13,.24,.3,.59,.46,.94,.46Z"/><path d="M68.58,61.51c-.56-.35-1.3-.17-1.65,.4-4.35,7.11-6.27,14.67-5.88,23.12,.14,2.95,1.16,9.1,2.28,11.54l.25,.55c1,2.18,2.36,5.17,4.53,7.17,.23,.21,.52,.32,.81,.32,.32,0,.65-.13,.88-.39,.45-.49,.42-1.25-.07-1.7-1.81-1.67-3.06-4.41-3.97-6.4l-.26-.56c-.9-1.95-1.93-7.65-2.07-10.65-.37-7.95,1.44-15.06,5.53-21.75,.35-.57,.17-1.3-.4-1.65Z"/><path d="M105.49,87.15c1.11,.03,2.03-.84,2.06-1.94,.03-1.11-.84-2.03-1.94-2.06-1.11-.03-2.03,.84-2.06,1.94-.03,1.11,.84,2.03,1.94,2.06Z"/><path d="M82.46,81.1c-1.11-.03-2.03,.84-2.06,1.94-.03,1.11,.84,2.03,1.94,2.06s2.03-.84,2.06-1.94c.03-1.11-.84-2.03-1.94-2.06Z"/><path d="M84.4,104.67c1.45,.12,3.97,.57,5.49,.98,1.29,.35,2.87,.47,4.15,.47,.41,0,.8-.01,1.13-.03,.86-.05,1.94-.07,2.98-.08,.57,0,1.14-.01,1.66-.03,.5-.01,.89-.43,.88-.92-.01-.5-.42-.91-.92-.88-.52,.01-1.08,.02-1.64,.03-1.07,.01-2.17,.03-3.07,.08-1.34,.08-3.31,0-4.71-.37-1.63-.44-4.24-.9-5.81-1.04-.5-.04-.93,.33-.97,.82-.04,.5,.33,.93,.82,.97Z"/><path d="M95.27,87.81c-.5-.06-.94,.3-.99,.8-.18,1.7-.29,5.05-.21,6.9,.02,.48,.42,.86,.9,.86h.04c.5-.02,.88-.44,.86-.94-.07-1.74,.03-5.02,.2-6.63,.05-.49-.3-.94-.8-.99Z"/></g><path d="M16.72,146.46c4.4-5.71,11.52-14.2,17.26-20.54-.73,2.58-1.03,5.4-.83,8.34,.23,3.41,2,15.38,15.06,26.43,1.82,1.54,4.39,3.78,7.19,6.25h3.62c-3.57-3.17-7-6.17-9.26-8.08-6.43-5.44-13.54-14.8-14.21-24.76-.54-8,2.93-14.96,8.84-17.73,.6-.28,.86-1,.58-1.6-.28-.6-1-.86-1.6-.58-2.06,.96-3.85,2.36-5.35,4.08-.11,.05-.21,.12-.3,.21-5.81,5.71-16.88,18.71-22.89,26.5-4.77,6.18-11.01,15.23-14.82,21.95H2.77c3.77-6.45,9.51-14.72,13.96-20.48Z"/></g><g><path class="b" d="M61.79,34.22c.92-.5,2.25-1.18,2.5-3.06,.24-1.88-2.06-3.19-3.95-3.11-1.89,.09-3.44,2.13-3,3.97,.43,1.84,2.8,3.1,4.46,2.2Z"/><path class="c" d="M52.68,26.25c.61-.94,1.65-1.62,2.29-3.04,.65-1.43,.11-3.27-1.05-4.33-.96-.88-2.46-.98-3.65-.48-1.2,.5-2.12,1.5-2.8,2.61-.78,1.28-1.28,2.8-1.02,4.27,.26,1.47,1.13,3.18,2.63,3.18,1.59,0,3.09-1.41,3.6-2.2Z"/><path class="d" d="M46.7,14.55c2.78-2.41,4.13-6.86,2-9.86-.64-.89-1.52-1.58-2.47-2.13-3.75-2.16-8.68-2.07-12.35,.22-2.19,1.37-3.94,3.51-4.58,6-2.92,11.38,11.64,10.79,17.41,5.77Z"/></g></svg>