<?xml version="1.0" encoding="utf-8"?>
<!-- Generator: Adobe Illustrator 26.2.1, SVG Export Plug-In . SVG Version: 6.00 Build 0)  -->
<svg version="1.1" id="a" xmlns="http://www.w3.org/2000/svg" xmlns:xlink="http://www.w3.org/1999/xlink" x="0px" y="0px"
	 viewBox="0 0 550.7 162.5" style="enable-background:new 0 0 550.7 162.5;" xml:space="preserve">
<style type="text/css">
	.st0{fill:#000111;}
</style>
<path d="M271.7,27c-2.9-1.9-6.5-0.9-9.4,0.3c-2,0.8-4,1.7-5.9,2.8c0.5-1.2,0.8-2.4,0.9-3.8c0.1-2.8-1.2-5.8-3.6-7.4
	c-1-0.7-2.7-1.4-3.9-0.7c-1.2,0.7-2,2.3-2.5,3.5c-1.2,2.8-1.4,6-1.2,9.1c0.2,4,1,7.9,0.8,11.9c0,0.1,0.1,0.2,0.2,0.3
	c-0.1,0-0.3,0.1-0.4,0.1c-0.4,0.1,0.6,0.7,0.7,0.7c0.4,0.2,1.1,0.4,1.5,0.3c7.3-2.5,15-5.1,20.9-10.4C271.3,32.2,274.7,29,271.7,27z
	 M252.5,19c0,0.1,0,0.1-0.1,0C252.5,19,252.5,18.9,252.5,19z M251.9,19.2c0,0,0.1-0.1,0.3-0.1c0.2,0.1,0.3,0.3,0.5,0.4
	c0.2,0.2,0.5,0.5,0.7,0.8c-0.3-0.1-0.5-0.1-0.6,0l-3.3,2.9c0.1-0.2,0.2-0.4,0.3-0.7C250.1,21.4,250.8,19.8,251.9,19.2z M248.6,26.3
	c0-0.1,0-0.1,0-0.2c0.3,0.1,0.6,0.1,0.7,0l4.9-4.2c0.2,0.6,0.4,1.1,0.5,1.7c-2.1,1.9-4.2,3.9-6.4,5.8
	C248.3,28.4,248.4,27.4,248.6,26.3z M248.4,32.3c0.1,0,0.2,0,0.2-0.1c2-1.9,4-3.7,6.1-5.6c-0.3,2.3-1.5,4.4-3,6.1
	c-0.2,0.2-0.4,0.4-0.5,0.6c-0.1,0.1-0.2,0.2-0.3,0.3c0,0,0,0,0,0.1c-0.6,0.7-1.2,1.5-1.7,2.3c-0.2,0.3,2,1.4,2.4,0.8
	c0.5-0.8,1.1-1.6,1.8-2.4c2.6-1.9,5.4-3.6,8.3-4.9c0,0,0.1,0,0.2-0.1c-2,1.6-3.9,3.3-5.9,4.9c-1.2,1-2.4,2-3.7,3.1
	c-0.9,0.8-2.2,1.6-2.6,2.8c-0.1,0.5,1.8,1,2.2,0.9c0.1,0,0.2,0,0.2-0.1c-0.9,0.3-1.9,0.7-2.8,1C249.2,38.9,248.6,35.6,248.4,32.3z
	 M253.2,40.7c0.1-0.1,0.3-0.1,0.4-0.2c0.1-0.1-0.3-0.4-0.8-0.7c0.6-0.6,1.3-1.1,1.9-1.6c1.2-1,2.4-2,3.7-3.1c2.4-2,4.8-4,7.2-6
	c0.2-0.1-0.4-0.6-1-0.8c0.5-0.2,1.1-0.4,1.6-0.6c0.9-0.3,3.7-1.4,4.2-0.2c0.2,0.4,0.2,0.8,0.1,1.2c-0.6-0.3-1.4-0.6-1.7-0.3
	c-3.3,3.6-6.8,6.8-10.7,9.8c-0.1,0.1,0,0.2,0.2,0.4c-0.3,0.2-0.7,0.3-1,0.5C255.9,39.6,254.6,40.2,253.2,40.7z"/>
<path class="st0" d="M16.8,46.8c-0.9,2.6-4.1,13.1-6.7,20.7C8.2,73,7,75.9,6.8,76.9c0,0.2-0.1,0.3,0,0.3c0.1,0.3,0.4,1.3,0.3,2
	c-0.2,0.7-0.7,1.2-2,0.9c-1.5-0.3-1.7-1.2-1.6-1.9c0.2-0.7,0.7-1.4,0.9-1.4c0.3,0,2-5.3,5-14.5c2-6.3,3.1-9.6,4.7-16.7
	c0,0-10.4,8.6-13.2,8c-1-0.2-1.1-1.5-0.7-3.3c0.6-2.6,2.1-6.5,3.5-10.2c0.2-0.5,1.1-4.4,2.5-4.1c0.5,0.1,1.4,1,1.3,1.8
	C6.5,41.6,4,45,3.2,49c-0.1,0.3-0.1,0.8,0.2,0.9c1.2,0.2,6-3.5,10.8-7.2c0.8-0.6,1.3-2,2.2-1.8c0.1,0,0.3,0.1,0.5,0.2
	c0.7,0.4,0.7,2.4,0.3,4.2C17.1,45.8,16.9,46.3,16.8,46.8C16.8,46.8,16.8,46.8,16.8,46.8z"/>
<path class="st0" d="M33.5,55.8c-3.3-0.7-4.2-5.1-3.6-8.2c0.3-1.2,0.8-2.4,1.6-3.5c3.9-5.4,7.1-7.3,9.9-6.8c1.9,0.4,5.5,2.9,4.9,8.1
	c-0.1,0.6-0.1,1-0.2,1.6C44.7,53.5,37.5,56.5,33.5,55.8C33.5,55.7,33.5,55.7,33.5,55.8z M33.2,46.2c-0.3,0.5-0.5,1.1-0.7,1.8
	c-0.4,1.7-0.1,4.9,2,5.4s5.7-1.5,6.9-3c1.1-1.4,2-2.9,2.4-4.5c0.4-2.1,0-5.3-2.6-5.9C40.8,39.8,37,39.6,33.2,46.2z"/>
<path class="st0" d="M66.3,54.2c-0.6,0.1-1.1,0.2-1.5,0.1c-5.5-1.2-2.1-18-1.8-19.8c0.2-1.1,0.7-1.4,1.3-1.3h0.2
	c1,0.2,1.2,1.5,1,2.1c-0.1,0.7-0.3,1.3-0.4,1.9c-1.6,7.5-1.2,13.8,0.4,14.2c0.3,0.1,0.7-0.1,1.1-0.6c3.2-3.6,5.6-11.1,5.9-12.3
	c0.1-0.7,0.4-1.7,1.9-1.4c1.2,0.3,0.9,2.2,0.9,2.2C75,40.2,69.4,53.6,66.3,54.2L66.3,54.2z"/>
<path class="st0" d="M108.5,37.5c-0.6-0.1-1-0.7-1.8-0.8c-0.3-0.1-0.8-0.1-1.3,0.1c-3.3,1.1-7.7,4.3-12.2,8.8
	c-2.3,2.3-2.4,6-3.2,6.7c-0.4,0.3-0.8,0.4-1.1,0.3c-0.5-0.1-0.9-0.4-1.2-0.8c-0.2-0.3-0.2-0.8-0.1-1.4c0.3-1.4,1.4-3.7,2.3-7.3
	c0.3-1.2,0.6-2.2,0.8-3.2c1.2-5.9,0.4-7.1,0.5-7.6s1.2-0.9,1.6-0.8c0.3,0.1,0.6,0.3,0.9,0.7c0.6,0.8,0.5,1.9,0,4.8
	c-0.3,1.7-0.5,2.5-1.2,5.7c0,0,4.2-3.6,7.8-5.8c2.1-1.3,4.5-3,7.3-2.4c0.7,0.1,1.3,0.4,2.1,0.8c0.3,0.2,0.5,0.8,0.4,1.4
	C110,37.2,109.2,37.8,108.5,37.5L108.5,37.5L108.5,37.5z"/>
<path class="st0" d="M167.3,48.8c-0.2,0.8-0.2,1.4-0.3,1.9c-0.1,0.7-0.4,1-1.5,0.8s-1.2-1.3-1-2.5c0.3-1.3,0.8-2.9,1.3-5.4
	c0.8-3.5,1.3-7.7,0.4-8.6c-0.2-0.2-0.4-0.3-0.7-0.3c-2.8-0.6-9.9,3.9-11.8,6.4c-1.5,2-2.2,4.2-2.4,5.4c-0.1,0.5-0.1,1-0.2,1.6
	c-0.4,1.7-1.4,2.1-2.3,1.9c-0.9-0.2-1.5-0.9-1.3-1.9c0.1-0.7,0.6-1.3,1-1.8c0.8-1,1.4-6.8,5.1-18.1c2.5-7.6,2.9-11.7,4.6-11.4
	c1.2,0.3,1.5,1,1.3,2c-0.3,1.5-1.5,3.8-2.6,7.3c-1.2,3.8-2.4,7.7-3.4,11.9c0,0,8.1-6.9,13-5.9c0.4,0.1,0.8,0.2,1.2,0.5
	c2.4,1.4,1.9,6.6,0.8,11.3C168.2,45.4,167.6,47.3,167.3,48.8L167.3,48.8L167.3,48.8z"/>
<path class="st0" d="M204.1,42.8c-1.1,0.3-10.2,5.7-15.5,4.5c-0.8-0.2-1.4-0.5-2-0.9c-2.8-2.1-4.1-6.2-3.4-9.7
	c0.1-0.6,0.3-1.1,0.6-1.7c2.3-5,9.2-7.4,14.1-6.3c1.6,0.3,2.8,0.9,3.8,1.9c0.1,0.1,0.1,0.2,0.1,0.4c-0.2,1.2-4.9,3.3-7.9,4.4
	c-3.3,1.2-6.2,0.8-7.6,0.7c0,0-0.2,0.5-0.4,1.3c-0.2,1-0.3,2.5,0.4,4.3c0.6,1.5,1.2,2.9,3.3,3.3c3.7,0.8,12.2-3.6,12.9-4.2
	c0.4-0.5,1.2-1.6,2-1.4c0.7,0.2,1.3,1,1.1,1.8C205.5,41.8,204.8,42.4,204.1,42.8L204.1,42.8L204.1,42.8z M192.6,31.4
	c-2.6,0.7-4.5,2.3-4.5,2.3s2.7,0.4,5.9-0.8c1.4-0.5,2.3-0.8,4-1.8C196.3,30.8,194.5,30.9,192.6,31.4
	C192.6,31.4,192.6,31.4,192.6,31.4z"/>
<path class="st0" d="M229.1,46.8c-0.1,0.1-0.4,0.1-0.6,0.1c-0.3-0.1-0.7-0.2-0.9-0.6c-0.2-0.3-0.2-1.2-0.2-1.2s-3.8,1.6-6.7,1
	c-2.4-0.5-3.4-2.2-2.9-4.5c0.7-3.2,4.3-6.8,8-6.1c2.6,0.5,3.3,3.1,3.5,5.4c0,0,1.1-1.6,1.7-4.1c0.6-2.7,0.7-8.2-3-9
	c-1.9-0.4-4,0.5-4.2,1.1c0,0.2-0.2,0.2-0.4,0.2c-0.5-0.1-1.2-0.6-1.1-1.5c0.3-1.6,3.7-2.5,6.4-2c1,0.2,1.8,0.6,2.5,1.2
	c2.8,2.7,3,6.7,2.2,10.3C232.2,42.3,229.4,46.8,229.1,46.8C229.1,46.9,229.1,46.9,229.1,46.8z M225.3,37.9c-2.4-0.5-4.9,1.6-5.4,4
	c-0.2,1,0.1,1.8,1.2,2c2.3,0.5,6-1.5,6-1.5S226.9,38.3,225.3,37.9z"/>
<path class="st0" d="M300.5,26c-0.6-0.1-1.2-0.4-1.6-0.5c-2.9-0.6-6.3-0.6-8.1-0.6c-0.2,0.5-2.8,7.9-4.1,14.1
	c-0.2,0.8-0.3,1.6-0.4,2.3c0,0.2,0.1,0.9-0.1,1.5c-0.1,0.6-0.5,1.1-1.4,0.9h-0.2c-1.4-0.4-1.3-2.2-1.1-2.9c0.5-2.1,1.1-5,2.6-9.7
	c1-3.3,1.4-4.2,2.1-6.1c0,0-2.4,0-4.3,0.5c-0.9,0.2-2.8,1.3-3.6,1.1c-0.5-0.1-1.3-1-1.2-1.7c0-0.1,0-0.2,0.1-0.3
	c0.4-0.6,0.5-1,3.3-1.4c2.9-0.5,3.5-0.6,6.5-0.7c0,0,2.7-7.2,3-8.8c0.2-0.8,0.2-1.5,0.4-2.1c0.2-1,0.6-1.8,1.5-1.6s1.3,1.2,0.7,3.7
	c-0.1,0.7-0.4,1.5-0.7,2.5c-0.9,2.8-1.3,3.5-2.4,6.4c0,0,3,0,6.3,0.7c0.4,0.1,0.8,0.2,1.3,0.3c1,0.3,2.7,0.6,2.5,1.9
	C301.6,26,301.1,26.1,300.5,26L300.5,26L300.5,26z"/>
<path class="st0" d="M344.2,34.2l-0.2,0.9c-0.5,2.1,0.1,2.3-0.1,3.2c-0.2,0.8-0.7,1.5-1.6,1.3c-0.3-0.1-0.7-0.3-1-0.7
	c-0.4-0.4-0.3-1.5,0.1-3.2c0.5-2.2,1.4-5.6,2.6-10c0.7-2.5,1.1-5.3,2.7-5c0.8,0.2,1.3,1,1.1,2.1C347.5,24.3,344.6,32.2,344.2,34.2
	L344.2,34.2z M351.2,7.4c-0.2,0.6-1,1.3-1.9,2.6c-1.1,1.6-0.9,2.5-1.5,2.8c-0.3,0.2-0.6,0.3-0.9,0.2c-0.7-0.1-0.6-1.1-0.5-1.8
	c0.2-0.9,0.6-1.9,1.5-3c1.4-1.8,1.3-3,2.5-2.7c0.7,0.1,1,0.8,0.9,1.6L351.2,7.4C351.2,7.4,351.2,7.4,351.2,7.4z"/>
<path class="st0" d="M378.8,18.4c-0.9-0.2-1.3-0.9-1.7-0.9c-1.6-0.3-2.3,0.6-6.8,3.1c-2.5,1.4-4.3,3.9-4.6,5.4
	c-0.6,2.7,2.3,4.3,5.2,6.2c2.6,1.7,5.2,2.8,4.6,5.7c-0.4,1.9-9,4.3-9.7,4.2c-1-0.3-1.6-1-1.4-1.6c0-0.2,0.2-0.5,0.4-0.6
	c0.4-0.4,7.7-1.3,8-3c-0.2-2.4-11.1-4.3-9.6-11.3c1.1-5.2,8-8.3,11.6-10.3c0.7-0.4,1.5-0.4,2.1-0.2c0.4,0.1,0.8,0.3,1,0.5
	c0.5,0.4,2,1.6,1.9,2.2V18C379.8,18.2,379.5,18.6,378.8,18.4C378.8,18.4,378.8,18.4,378.8,18.4z"/>
<path class="st0" d="M444.8,36.5c-0.4-0.1-0.8-0.4-0.9-0.8c-0.2-0.8,0.1-2.9,0.5-5.1c0.5-2.4,1.2-4.9,1.5-6.3V24
	c0-0.2,0.9-5.3-0.1-5.5c-0.5-0.1-4.5,3.8-7.9,8.8c-4,5.8-4.4,9.2-5.7,8.9c0,0-0.1-0.1-0.2-0.1c-1.8-0.9-1.2-1.8-0.3-6.8
	c1.2-7,2-11.8,1.5-12.3c0-0.1-0.1-0.1-0.1-0.1c-1.3-0.3-6.7,6.9-9,13c-0.2,0.6-0.4,1.1-0.5,1.6c-0.2,0.9-0.1,1.3-0.2,1.7
	c-0.1,0.6-1.1,0.7-1.7,0.6c-0.5-0.1-1-0.4-1.1-0.7s0-1,0.2-2c0.6-3,2.4-8.2,2.8-9.3c0.2-0.6,0.4-1.2,0.5-1.8c0.4-1.6,0.4-3,0.6-3.8
	c0.2-0.8,0.8-1.4,1.8-1.2c0.3,0.1,0.6,0.3,0.8,0.6c0.5,0.8,0.6,1.1,0.5,3.3c0,0,4.6-6.2,6.3-5.8c0.8,0.2,1.6,1.3,1.9,2.2
	c0.3,0.8,0,4.6-1.4,12.5c0,0,8.6-12.2,12.1-11.9c1,0.2,2.1,2.3,2.2,3.4c0.1,1.6-0.9,6.8-1.7,10.4c-0.4,1.9-0.8,3.3-0.8,3.7
	c-0.1,0.7,0.1,1.7,0,2.4C446.2,36.4,445.5,36.6,444.8,36.5L444.8,36.5L444.8,36.5z"/>
<path class="st0" d="M473.2,33.8c-0.1,0.1-0.4,0.1-0.6,0.1c-0.3-0.1-0.7-0.2-0.9-0.6c-0.2-0.3-0.2-1.2-0.2-1.2s-3.8,1.6-6.7,1
	c-2.4-0.5-3.4-2.2-2.9-4.5c0.7-3.1,4.3-6.8,8-6.1c2.6,0.5,3.3,3.1,3.5,5.4c0,0,1.1-1.6,1.7-4.1c0.6-2.7,0.7-8.2-3-9
	c-1.9-0.4-4,0.5-4.2,1.1c0,0.2-0.2,0.2-0.4,0.2c-0.5-0.1-1.2-0.6-1.1-1.5c0.3-1.6,3.7-2.6,6.5-2c1,0.2,1.8,0.6,2.5,1.2
	c2.8,2.7,3,6.7,2.2,10.3C476.3,29.2,473.5,33.8,473.2,33.8L473.2,33.8z M469.4,24.9c-2.4-0.5-4.9,1.6-5.4,4c-0.2,1,0.1,1.8,1.2,2
	c2.3,0.5,6-1.5,6-1.5S471,25.3,469.4,24.9L469.4,24.9L469.4,24.9z"/>
<path class="st0" d="M518.5,3.8c-0.5,0.8-4.8,13.3-6.6,20c0,0,1.7,0.5,1.7,1.5V26c-0.3,1.3-1.5,1-3.3,1.3c0,0,0,1.5-0.3,2.8
	c-0.2,1.1-0.6,2-1.4,1.9c-2.2-0.8-1.4-2.2-1.4-3.6c0,0-7.9,3.2-12.8,2.2c-3.1-0.7-4.5-3.3-3.8-6.3c1.2-5.6,9.8-10.6,14.1-9.7
	c0.2,0.1,0.5,0.1,0.7,0.2c3.6,1.6,3.9,4,4.7,6.4c0,0,5.2-15.3,5.8-17.8V3c-0.1-0.8,0-1.4,0.1-1.9c0.2-0.8,0.5-1.2,1.1-1
	c1.4,0.3,2.2,1.6,1.9,2.8C518.9,3.3,518.8,3.6,518.5,3.8L518.5,3.8L518.5,3.8z M505.4,17.5c-0.3-0.3-0.8-0.4-1.2-0.5
	c-3.8-0.8-10.4,4.3-11.2,8c-0.3,1.5,0.6,2.8,2.3,3.2c3,0.6,8-1.4,12.2-2.7C507.5,25.5,508,19.4,505.4,17.5L505.4,17.5L505.4,17.5z"
	/>
<path class="st0" d="M549.1,24.4c-1.2,0.4-10.2,5.6-15.5,4.5c-0.8-0.2-1.4-0.5-2-0.9c-2.8-2.1-4.1-6.2-3.4-9.7
	c0.1-0.6,0.3-1.1,0.5-1.6c2.3-5.1,9.2-7.4,14.1-6.3c1.5,0.3,2.8,0.9,3.8,1.9c0.1,0.1,0.2,0.2,0.1,0.4c-0.2,1.2-4.9,3.3-7.9,4.4
	c-3.3,1.2-6.2,0.8-7.5,0.7c0,0-0.2,0.5-0.4,1.3c-0.2,1-0.3,2.5,0.4,4.3c0.6,1.5,1.2,2.9,3.3,3.3c3.7,0.8,12.2-3.6,12.9-4.2
	c0.4-0.5,1.2-1.6,2-1.4c0.7,0.1,1.3,1,1.1,1.8C550.4,23.4,549.8,24,549.1,24.4L549.1,24.4L549.1,24.4z M537.6,13
	c-2.7,0.7-4.5,2.3-4.5,2.3s2.7,0.4,6-0.8c1.4-0.4,2.3-0.8,4-1.8C541.3,12.4,539.5,12.5,537.6,13z"/>
<path class="st0" d="M8.5,141.2c-0.8,0.6-0.9,1-1.5,0.9c-0.8-0.2-1.5-1-1.3-1.9c0.1-0.3,0.2-0.5,0.2-0.5H5.8
	c-0.3-0.1-1.3-0.3-1.5-1.1c0-0.1,0.2-1,0.5-2.4c0.6-3,1.8-8,3.1-11.6c0,0-0.6-0.3-0.5-1.5c0.1-0.5,0.9-1,1.7-1.2
	c0,0,2.8-5.4,3.7-9.5c0.1-0.6-0.1-1.6,0.1-2.4c0.1-0.6,0.5-1.1,1.4-0.9s1.5,1.9,1,4.2c-0.6,2.9-1.6,4-3.6,8.7c0,0,0.2,0.1,0.6,0.1
	c2,0.4,8.5,2.2,9.6,7.2c0.1,0.4,0.1,0.8,0,1.2C20.9,135.1,9.6,140.5,8.5,141.2L8.5,141.2L8.5,141.2z M19.2,129.1
	c-0.5-2-3.9-3.8-7-4.4c-0.5-0.1-1-0.2-1.5-0.2c0,0-1.5,3-2.3,6.1c-0.2,0.8-0.4,1.6-0.5,2.3c-0.8,3.7-0.9,6.1-0.9,6.1
	s11.3-4.6,12.2-8.9C19.3,129.9,19.3,129.5,19.2,129.1L19.2,129.1L19.2,129.1z"/>
<path class="st0" d="M51.3,129.1c-0.9,2.6-4.2,13.1-6.7,20.7c-1.9,5.6-3.1,8.5-3.3,9.5c0,0.2-0.1,0.3,0,0.3c0.1,0.3,0.4,1.3,0.3,2
	c-0.2,0.7-0.7,1.2-2,0.9c-1.5-0.3-1.7-1.1-1.6-1.9c0.2-0.7,0.7-1.4,0.9-1.4c0.3,0,2.1-5.3,5-14.6c2-6.3,3.1-9.6,4.7-16.7
	c0,0-10.4,8.6-13.2,8c-1-0.2-1.1-1.5-0.7-3.3c0.6-2.6,2.1-6.5,3.5-10.2c0.2-0.5,1.1-4.4,2.5-4.1c0.5,0.1,1.4,1,1.3,1.8
	c-1,3.8-3.5,7.2-4.3,11.2c-0.1,0.3-0.1,0.8,0.2,0.9c1.2,0.2,6-3.5,10.8-7.2c0.8-0.6,1.3-2,2.2-1.8c0.1,0,0.3,0.1,0.5,0.2
	c0.7,0.4,0.7,2.4,0.3,4.2C51.6,128.1,51.4,128.6,51.3,129.1L51.3,129.1z"/>
<path class="st0" d="M111.7,125.8c-0.9,2.6-4.2,13.1-6.7,20.7c-1.9,5.6-3.1,8.5-3.3,9.5c0,0.2-0.1,0.3,0,0.3c0.1,0.3,0.4,1.3,0.3,2
	c-0.2,0.7-0.7,1.2-2,0.9c-1.5-0.3-1.7-1.1-1.6-1.9c0.2-0.7,0.7-1.4,0.9-1.4c0.3,0,2.1-5.3,5-14.6c2-6.3,3.1-9.6,4.7-16.7
	c0,0-10.4,8.6-13.2,8c-1-0.2-1.1-1.5-0.7-3.3c0.6-2.6,2.1-6.5,3.5-10.2c0.2-0.5,1.1-4.4,2.5-4.1c0.5,0.1,1.4,1,1.3,1.8
	c-1,3.8-3.5,7.2-4.3,11.2c-0.1,0.3-0.1,0.8,0.2,0.9c1.2,0.2,6-3.5,10.8-7.2c0.8-0.6,1.3-2,2.2-1.8c0.1,0,0.3,0.1,0.5,0.2
	c0.7,0.4,0.7,2.4,0.3,4.2C112,124.9,111.8,125.4,111.7,125.8C111.7,125.9,111.7,125.9,111.7,125.8z"/>
<path class="st0" d="M128.4,134.8c-3.3-0.7-4.2-5.1-3.6-8.2c0.3-1.2,0.8-2.4,1.6-3.5c3.9-5.4,7.1-7.3,9.9-6.8
	c1.9,0.4,5.5,2.9,4.9,8.1c-0.1,0.6-0.1,1.1-0.2,1.6C139.5,132.6,132.3,135.6,128.4,134.8L128.4,134.8L128.4,134.8z M128,125.2
	c-0.3,0.5-0.5,1.1-0.7,1.8c-0.4,1.7-0.1,4.9,2.1,5.4c2.2,0.5,5.7-1.5,6.9-3c1.1-1.4,2-2.9,2.4-4.6c0.4-2.1-0.1-5.3-2.6-5.9
	C135.7,118.9,131.9,118.6,128,125.2L128,125.2L128,125.2z"/>
<path class="st0" d="M161.1,133.2c-0.6,0.1-1.1,0.2-1.5,0.1c-5.5-1.2-2.1-18-1.8-19.8c0.2-1.1,0.7-1.4,1.3-1.3l0.2,0.1
	c1,0.2,1.2,1.5,1,2.1c-0.1,0.7-0.3,1.3-0.4,1.9c-1.6,7.5-1.2,13.8,0.4,14.2c0.3,0.1,0.7-0.1,1.1-0.6c3.2-3.6,5.6-11.1,5.9-12.3
	c0.1-0.7,0.4-1.7,1.9-1.4c1.2,0.3,0.9,2.2,0.9,2.2C169.9,119.2,164.2,132.5,161.1,133.2L161.1,133.2L161.1,133.2z"/>
<path class="st0" d="M203.4,116.7c-0.6-0.1-1-0.7-1.8-0.8c-0.3-0.1-0.8-0.1-1.3,0.1c-3.3,1.1-7.7,4.3-12.2,8.8
	c-2.3,2.3-2.4,6-3.2,6.7c-0.4,0.3-0.8,0.4-1.1,0.3c-0.5-0.1-0.9-0.4-1.1-0.8c-0.2-0.3-0.2-0.8-0.1-1.4c0.3-1.4,1.4-3.7,2.3-7.3
	c0.3-1.2,0.6-2.2,0.8-3.2c1.2-5.9,0.4-7.1,0.5-7.6s1.2-0.9,1.6-0.8c0.3,0.1,0.6,0.3,0.9,0.7c0.6,0.8,0.5,1.9,0,4.8
	c-0.3,1.7-0.5,2.6-1.2,5.7c0,0,4.1-3.6,7.8-5.8c2.1-1.3,4.5-3,7.3-2.4c0.7,0.1,1.3,0.4,2.1,0.8c0.3,0.2,0.5,0.8,0.4,1.4
	C204.9,116.3,204.1,116.8,203.4,116.7L203.4,116.7z"/>
<path class="st0" d="M254.7,129.6c-0.1,0.1-0.4,0.1-0.6,0.1c-0.3-0.1-0.7-0.2-0.9-0.6c-0.2-0.3-0.2-1.2-0.2-1.2s-3.8,1.6-6.7,1
	c-2.4-0.5-3.4-2.2-2.9-4.5c0.7-3.2,4.3-6.8,8-6.1c2.6,0.6,3.3,3.1,3.5,5.4c0,0,1.1-1.6,1.7-4.1c0.6-2.7,0.7-8.2-3-9
	c-1.9-0.4-4,0.5-4.2,1.1c0,0.2-0.2,0.2-0.4,0.2c-0.5-0.1-1.2-0.6-1.1-1.5c0.3-1.6,3.7-2.6,6.4-2c1,0.2,1.8,0.6,2.5,1.2
	c2.8,2.7,3,6.7,2.2,10.3C257.8,125.1,255,129.6,254.7,129.6L254.7,129.6L254.7,129.6z M250.9,120.8c-2.4-0.5-4.9,1.6-5.4,4
	c-0.2,1,0.1,1.8,1.2,2c2.3,0.5,6-1.5,6-1.5S252.5,121.1,250.9,120.8z"/>
<path class="st0" d="M277,126.8c-0.7-0.2-1.3-1-1.3-1.6c0,0-1.5,4-2.9,10.5l-0.7,3.1c-0.7,3.4-1,5.5-1,5.8c0.1,0.4,0.1,0.7,0,0.9
	c-0.2,0.8-0.8,1.2-1.4,1.1c-1-0.2-1.4-1.4-1.2-2.3c0.1-0.3,0.2-0.6,0.4-0.8c0.1,0,0.1-0.2,0.1-0.5c0.2-1,0.5-3.7,1.4-8
	c0.3-1.2,0.6-2.6,1-4.1c2.5-9.7,3.8-12.9,6.7-21.2c0,0-1.1-0.6-0.9-1.7c0.3-1.4,3.1-1.5,3.8-1.4c3.3,0.7,9,5.3,7.8,10.8
	C287.9,121.9,277.9,127,277,126.8C277,126.9,277,126.9,277,126.8z M281.4,109.6c0,0-1.5,3.5-2.5,6.1c-1,2.7-3,8.4-3,8.4
	s8-2,10.2-6.9c0.1-0.2,0.1-0.3,0.2-0.5C286.8,114.4,284.1,110.4,281.4,109.6L281.4,109.6z"/>
<path class="st0" d="M305.5,125.2c-0.7-0.2-1.3-1-1.3-1.6c0,0-1.5,4-2.9,10.5l-0.7,3.1c-0.7,3.4-1,5.5-1,5.8c0.1,0.4,0.1,0.7,0,0.9
	c-0.2,0.8-0.8,1.2-1.4,1.1c-1-0.2-1.4-1.4-1.2-2.3c0.1-0.3,0.2-0.6,0.4-0.8c0.1,0,0.1-0.2,0.1-0.5c0.2-1,0.5-3.7,1.4-8
	c0.3-1.2,0.6-2.6,1-4.1c2.5-9.7,3.8-12.9,6.7-21.2c0,0-1.1-0.6-0.9-1.7c0.3-1.4,3.1-1.5,3.8-1.4c3.3,0.7,9,5.3,7.8,10.8
	C316.5,120.2,306.4,125.4,305.5,125.2L305.5,125.2z M309.9,108.2c0,0-1.5,3.5-2.5,6.1c-1,2.7-3,8.4-3,8.4s8-2,10.2-6.9
	c0.1-0.2,0.1-0.3,0.2-0.5C315.3,112.9,312.6,108.8,309.9,108.2L309.9,108.2L309.9,108.2z"/>
<path class="st0" d="M351.2,119.1c-1.1,0.3-10.2,5.7-15.5,4.5c-0.8-0.2-1.4-0.4-2-0.9c-2.8-2.1-4.1-6.2-3.4-9.7
	c0.1-0.6,0.3-1.1,0.5-1.7c2.3-5.1,9.2-7.4,14.1-6.3c1.5,0.3,2.8,0.9,3.8,1.9c0.1,0.1,0.1,0.2,0.1,0.4c-0.2,1.2-4.9,3.3-7.9,4.4
	c-3.3,1.2-6.2,0.8-7.5,0.7c0,0-0.2,0.5-0.4,1.3c-0.2,1-0.3,2.5,0.4,4.3c0.6,1.5,1.2,2.9,3.3,3.3c3.7,0.8,12.2-3.6,12.9-4.2
	c0.4-0.5,1.2-1.6,2-1.4c0.7,0.2,1.3,1,1.1,1.8C352.5,118.2,351.9,118.8,351.2,119.1L351.2,119.1L351.2,119.1z M339.7,107.7
	c-2.6,0.7-4.5,2.3-4.5,2.3s2.7,0.4,6-0.8c1.4-0.4,2.3-0.8,4-1.8C343.4,107,341.6,107.2,339.7,107.7L339.7,107.7z"/>
<path class="st0" d="M376.1,123.2c-0.1,0.1-0.4,0.1-0.6,0.1c-0.3-0.1-0.7-0.2-0.9-0.6c-0.2-0.3-0.2-1.2-0.2-1.2s-3.8,1.6-6.7,1
	c-2.4-0.5-3.4-2.2-2.9-4.5c0.7-3.2,4.3-6.8,8-6.1c2.6,0.6,3.3,3.1,3.5,5.4c0,0,1.1-1.6,1.7-4.1c0.6-2.7,0.7-8.2-3-9
	c-1.9-0.4-4,0.5-4.2,1.1c0,0.2-0.2,0.2-0.4,0.2c-0.5-0.1-1.2-0.6-1.1-1.5c0.3-1.6,3.7-2.6,6.5-2c1,0.2,1.8,0.6,2.5,1.2
	c2.8,2.7,3,6.7,2.2,10.3C379.2,118.6,376.4,123.1,376.1,123.2L376.1,123.2z M372.4,114.2c-2.4-0.5-4.9,1.6-5.4,4
	c-0.2,1,0.1,1.8,1.2,2c2.3,0.5,6-1.5,6-1.5S373.9,114.6,372.4,114.2L372.4,114.2L372.4,114.2z"/>
<path class="st0" d="M415.4,105.3c-0.6-0.1-1-0.7-1.8-0.8c-0.3-0.1-0.8-0.1-1.3,0.1c-3.3,1.1-7.7,4.3-12.2,8.8
	c-2.3,2.3-2.5,6-3.2,6.7c-0.4,0.3-0.8,0.4-1.1,0.3c-0.5-0.1-0.9-0.4-1.1-0.8c-0.2-0.3-0.2-0.8-0.1-1.4c0.3-1.4,1.4-3.7,2.3-7.3
	c0.3-1.2,0.6-2.2,0.8-3.2c1.2-5.9,0.4-7.1,0.5-7.6s1.2-0.9,1.6-0.8c0.3,0.1,0.6,0.3,0.9,0.7c0.6,0.8,0.5,1.9,0,4.8
	c-0.3,1.7-0.5,2.6-1.2,5.7c0,0,4.2-3.6,7.8-5.8c2.1-1.3,4.5-3,7.3-2.4c0.7,0.1,1.3,0.4,2.1,0.8c0.3,0.2,0.5,0.8,0.4,1.4
	C416.9,105,416.1,105.4,415.4,105.3L415.4,105.3L415.4,105.3z"/>
<path class="st0" d="M436.9,119.8c-0.1,0.1-0.4,0.1-0.6,0.1c-0.3-0.1-0.7-0.2-0.9-0.6c-0.2-0.3-0.2-1.2-0.2-1.2s-3.8,1.6-6.7,1
	c-2.4-0.5-3.4-2.2-2.9-4.5c0.7-3.2,4.3-6.8,8-6.1c2.6,0.6,3.3,3.1,3.5,5.4c0,0,1.1-1.6,1.7-4.1c0.6-2.7,0.7-8.2-3-9
	c-1.9-0.4-4,0.5-4.2,1.1c0,0.2-0.2,0.2-0.4,0.2c-0.5-0.1-1.2-0.6-1.1-1.5c0.3-1.6,3.7-2.6,6.5-2c1,0.2,1.8,0.6,2.5,1.2
	c2.8,2.7,3,6.7,2.2,10.3C440,115.3,437.2,119.8,436.9,119.8L436.9,119.8z M433.1,111c-2.4-0.5-4.9,1.6-5.4,4c-0.2,1,0.1,1.8,1.2,2
	c2.3,0.5,6-1.5,6-1.5S434.7,111.3,433.1,111L433.1,111L433.1,111z"/>
<path class="st0" d="M467.9,121.2c-0.9-0.2-1.9-1.3-1.7-2.6c0.1-0.3,0.3-0.6,0.4-1.1c0.2-1,0.2-3.3,1.1-7.5l1-4.6
	c0.1-0.6,0.9-4.4,0.3-4.5c-0.8-0.2-5.7,5.6-9,10.8c-2.2,3.5-2.4,4.7-3.1,5c-0.2,0-0.6,0.1-0.9,0.1c-0.3-0.1-0.7-0.3-0.9-0.8
	c-0.1-0.4-0.1-0.9,0-1.6c0.3-1.5,1.2-4.2,2.3-9.2c1-4.4,2.2-7.7,2.4-8.3c0.3-0.8,0.8-1,1.3-0.9c0.6,0.1,1.1,0.6,1.3,1.1
	c0.1,0.2,0.1,0.5,0,0.8c-0.2,1-1.1,2.7-1.6,5.4c-0.3,1.4-0.5,1.9-0.6,2.5c0,0.2-0.1,0.5-0.1,0.9c0,0,7.3-9.8,10.2-9.1h0.2
	c2.1,0.9,1.4,5.3,0.1,11.5l-1.1,5.4c-0.4,1.9-0.5,2.7-0.5,3.1c0.2,0.7,0.5,1.7,0.3,2.5C469.1,120.9,468.6,121.4,467.9,121.2
	L467.9,121.2L467.9,121.2z"/>
<path class="st0" d="M510.5,110.1c-0.1,0.4-13.6,6.1-21.2,4.5c-2.8-0.6-5.5-2.8-4.9-6.1c1.1-5.4,10-12.1,14.2-11.9
	c0.3,0,0.6,0.1,0.8,0.1c1.1,0.2,1.5,0.8,1.4,1.5c-0.2,0.8-1.5,2.1-2.4,1.9c-0.5-0.1-0.9-0.4-1.5-0.6c-0.1,0-0.3-0.1-0.4,0
	c-1.1,0.1-8.6,5.1-9.4,9.1c-0.4,2,0.9,3.4,3,3.9c5.9,1.2,18.7-3.8,19.3-3.8h0.4c0.6,0.1,0.9,0.7,0.8,1.2L510.5,110.1L510.5,110.1
	L510.5,110.1z"/>
<path class="st0" d="M542.6,108.8c-1.2,0.3-10.2,5.7-15.5,4.5c-0.8-0.2-1.4-0.4-2-0.9c-2.8-2.1-4.1-6.2-3.4-9.7
	c0.1-0.6,0.3-1.1,0.5-1.7c2.3-5.1,9.2-7.4,14.1-6.3c1.5,0.3,2.8,0.9,3.8,1.9c0.1,0.1,0.2,0.2,0.1,0.4c-0.2,1.2-4.9,3.3-7.9,4.4
	c-3.3,1.2-6.2,0.8-7.5,0.7c0,0-0.2,0.5-0.4,1.3c-0.2,1-0.3,2.5,0.4,4.3c0.6,1.5,1.2,2.9,3.3,3.3c3.7,0.8,12.2-3.6,12.9-4.2
	c0.4-0.5,1.2-1.6,2-1.4c0.7,0.2,1.3,1,1.1,1.8C543.9,108,543.3,108.6,542.6,108.8L542.6,108.8L542.6,108.8z M531.1,97.4
	c-2.7,0.7-4.5,2.3-4.5,2.3s2.7,0.4,6-0.8c1.4-0.4,2.3-0.8,4-1.8C534.8,96.8,533,96.9,531.1,97.4z"/>
</svg>
