<svg id="a" xmlns="http://www.w3.org/2000/svg" width="550.58" height="162.54" viewBox="0 0 550.58 162.54"><defs><style>.b{fill:#111;}</style></defs><path class="b" d="M16.77,46.74c-.88,2.56-4.15,13.11-6.69,20.71-1.87,5.59-3.07,8.48-3.28,9.46-.04,.19-.06,.28-.02,.34,.14,.27,.42,1.27,.26,2.02-.15,.7-.74,1.17-1.96,.91-1.46-.31-1.72-1.15-1.56-1.9,.15-.7,.68-1.38,.88-1.38,.35-.02,2.05-5.31,4.99-14.55,2.02-6.3,3.07-9.65,4.7-16.67,0,0-10.36,8.6-13.17,7.96-1.03-.22-1.1-1.51-.72-3.34,.56-2.63,2.06-6.48,3.48-10.21,.21-.54,1.12-4.37,2.53-4.08,.52,.11,1.4,1.03,1.29,1.79-1,3.81-3.48,7.16-4.33,11.2-.06,.28-.12,.81,.21,.88,1.17,.25,6-3.54,10.75-7.2,.77-.62,1.27-2.04,2.25-1.83,.14,.03,.33,.07,.5,.2,.69,.44,.67,2.4,.29,4.18-.11,.52-.26,1.02-.41,1.48Z"/><path class="b" d="M33.51,55.65c-3.33-.71-4.22-5.11-3.56-8.21,.26-1.22,.75-2.39,1.58-3.54,3.89-5.41,7.14-7.32,9.87-6.75,1.88,.4,5.48,2.88,4.91,8.1-.07,.57-.12,1.05-.23,1.57-1.42,6.72-8.62,9.66-12.56,8.82Zm-.35-9.5c-.3,.48-.53,1.11-.67,1.77-.36,1.69-.11,4.93,2.05,5.39,2.16,.46,5.67-1.5,6.92-3,1.13-1.38,2.04-2.91,2.38-4.55,.44-2.07-.05-5.31-2.64-5.86-.38-.08-4.15-.34-8.04,6.25Z"/><path class="b" d="M66.27,54.16c-.57,.12-1.11,.16-1.54,.07-5.54-1.17-2.13-18.02-1.81-19.76,.24-1.13,.74-1.41,1.26-1.3l.23,.05c1.03,.22,1.16,1.47,1.03,2.08-.14,.66-.32,1.26-.44,1.87-1.59,7.52-1.21,13.83,.39,14.17,.28,.06,.66-.11,1.11-.6,3.22-3.64,5.63-11.08,5.94-12.29,.14-.66,.41-1.68,1.86-1.37,1.22,.26,.92,2.16,.92,2.16-.19,.89-5.85,14.22-8.95,14.94Z"/><path class="b" d="M108.5,37.5c-.61-.13-1.04-.66-1.79-.82-.33-.07-.77-.06-1.3,.12-3.33,1.11-7.74,4.35-12.21,8.75-2.29,2.26-2.45,6.01-3.23,6.68-.36,.32-.77,.38-1.14,.3-.47-.1-.89-.43-1.15-.83-.22-.34-.23-.78-.1-1.39,.3-1.41,1.37-3.69,2.32-7.26,.3-1.21,.57-2.23,.77-3.17,1.24-5.87,.42-7.08,.54-7.64,.11-.52,1.17-.88,1.64-.78,.33,.07,.63,.28,.93,.69,.57,.81,.48,1.92-.03,4.8-.3,1.65-.49,2.55-1.15,5.69,0,0,4.15-3.64,7.75-5.77,2.08-1.28,4.47-3.03,7.29-2.43,.66,.14,1.34,.38,2.08,.83,.26,.15,.52,.8,.4,1.36-.13,.61-.91,1.04-1.61,.89Z"/><path class="b" d="M167.33,48.68c-.16,.75-.2,1.43-.3,1.9-.14,.66-.42,1.04-1.5,.81-1.13-.24-1.25-1.29-.99-2.52,.28-1.31,.8-2.87,1.34-5.41,.75-3.52,1.29-7.72,.4-8.6-.16-.18-.43-.29-.71-.35-2.82-.6-9.9,3.89-11.81,6.43-1.5,1.99-2.16,4.16-2.42,5.42-.11,.52-.12,1.05-.24,1.62-.37,1.74-1.42,2.06-2.26,1.88-.85-.18-1.48-.9-1.27-1.89,.14-.66,.62-1.29,1.03-1.84,.75-.97,1.39-6.82,5.12-18.15,2.48-7.57,2.92-11.7,4.56-11.35,1.22,.26,1.51,.96,1.29,2.04-.31,1.46-1.53,3.75-2.63,7.34-1.2,3.82-2.35,7.65-3.45,11.88,0,0,8.09-6.93,12.97-5.89,.42,.09,.83,.23,1.23,.46,2.35,1.43,1.85,6.57,.84,11.32-.34,1.6-.9,3.54-1.18,4.9Z"/><path class="b" d="M204.15,42.73c-1.15,.34-10.17,5.65-15.48,4.53-.75-.16-1.43-.45-1.98-.86-2.75-2.06-4.13-6.22-3.4-9.7,.12-.56,.29-1.12,.55-1.65,2.34-5.05,9.17-7.38,14.1-6.34,1.55,.33,2.84,.94,3.81,1.94,.12,.12,.15,.23,.12,.37-.25,1.17-4.88,3.34-7.89,4.37-3.29,1.17-6.21,.85-7.55,.66,0,0-.25,.49-.43,1.33-.21,.99-.28,2.49,.41,4.31,.56,1.54,1.21,2.86,3.28,3.29,3.71,.78,12.25-3.64,12.86-4.2,.39-.46,1.17-1.57,1.96-1.4,.7,.15,1.26,1,1.09,1.8-.14,.66-.76,1.26-1.46,1.56Zm-11.52-11.42c-2.65,.71-4.52,2.33-4.52,2.33,0,0,2.66,.42,5.95-.75,1.37-.45,2.28-.79,4.01-1.8-1.74-.37-3.56-.31-5.44,.22Z"/><path class="b" d="M229.07,46.79c-.12,.12-.37,.12-.6,.07-.33-.07-.73-.25-.91-.58-.22-.34-.19-1.17-.19-1.17,0,0-3.83,1.64-6.74,1.03-2.35-.5-3.4-2.24-2.92-4.5,.67-3.15,4.34-6.83,7.96-6.07,2.58,.55,3.27,3.1,3.52,5.41,0,0,1.12-1.58,1.66-4.11,.58-2.72,.7-8.19-3.01-8.98-1.88-.4-3.98,.48-4.21,1.12-.04,.19-.19,.21-.42,.16-.52-.11-1.25-.61-1.11-1.46,.34-1.6,3.73-2.55,6.45-1.97,.99,.21,1.84,.59,2.49,1.21,2.81,2.71,2.96,6.66,2.18,10.32-1.05,4.98-3.86,9.44-4.12,9.53Zm-3.77-8.85c-2.35-.5-4.86,1.62-5.35,3.97-.22,1.03,.07,1.78,1.24,2.03,2.3,.49,6-1.48,6-1.48,0,0-.34-4.19-1.89-4.52Z"/><path class="b" d="M268.31,28.98c-.61-.13-1.04-.66-1.79-.82-.33-.07-.77-.06-1.3,.12-3.33,1.11-7.74,4.35-12.2,8.75-2.29,2.26-2.45,6.01-3.23,6.68-.36,.32-.77,.38-1.14,.3-.47-.1-.89-.43-1.15-.83-.22-.34-.23-.78-.1-1.39,.3-1.41,1.37-3.69,2.32-7.26,.3-1.21,.57-2.23,.77-3.17,1.24-5.87,.42-7.08,.54-7.64,.11-.52,1.17-.88,1.64-.78,.33,.07,.63,.28,.93,.69,.56,.81,.48,1.92-.03,4.8-.3,1.65-.49,2.55-1.16,5.69,0,0,4.16-3.64,7.75-5.77,2.08-1.28,4.47-3.03,7.29-2.43,.66,.14,1.34,.38,2.08,.83,.26,.15,.52,.8,.4,1.36-.13,.61-.91,1.04-1.61,.89Z"/><path class="b" d="M300.5,25.95c-.56-.12-1.19-.4-1.57-.48-2.91-.62-6.29-.64-8.06-.63-.17,.55-2.75,7.91-4.07,14.15-.17,.8-.34,1.6-.44,2.31-.04,.19,.06,.89-.06,1.46-.13,.61-.47,1.08-1.37,.89l-.19-.04c-1.39-.39-1.26-2.18-1.1-2.93,.45-2.11,1.06-5.02,2.59-9.71,1.03-3.27,1.42-4.17,2.08-6.14,0,0-2.41,.03-4.27,.47-.88,.21-2.78,1.32-3.63,1.15-.52-.11-1.31-1.01-1.17-1.67,.02-.09,.04-.19,.12-.32,.38-.65,.55-.96,3.34-1.4,2.89-.47,3.55-.57,6.53-.73,0,0,2.7-7.18,3.04-8.78,.17-.8,.21-1.48,.35-2.13,.21-.99,.58-1.79,1.47-1.6,.89,.19,1.27,1.2,.74,3.69-.15,.7-.37,1.54-.68,2.51-.88,2.76-1.32,3.45-2.39,6.41,0,0,2.95-.01,6.28,.69,.42,.09,.83,.23,1.26,.31,.97,.26,2.68,.57,2.49,1.9-.15,.7-.7,.74-1.31,.61Z"/><path class="b" d="M344.2,34.1l-.19,.89c-.45,2.11,.1,2.33-.08,3.17-.17,.8-.66,1.48-1.6,1.28-.33-.07-.72-.3-1.04-.66-.35-.42-.28-1.48,.08-3.17,.48-2.25,1.43-5.59,2.62-10.05,.69-2.55,1.07-5.27,2.73-5.02,.8,.17,1.31,1.01,1.08,2.09-.34,1.6-3.21,9.62-3.6,11.46Zm6.95-26.84c-.18,.6-.96,1.27-1.88,2.64-1.07,1.59-.91,2.46-1.48,2.83-.29,.19-.61,.31-.94,.24-.7-.15-.65-1.12-.51-1.78,.18-.85,.64-1.88,1.46-2.98,1.41-1.81,1.27-2.97,2.49-2.71,.66,.14,1.05,.81,.9,1.56l-.04,.19Z"/><path class="b" d="M378.78,18.31c-.89-.19-1.29-.86-1.67-.94-1.61-.29-2.33,.59-6.75,3.14-2.51,1.43-4.26,3.91-4.57,5.36-.58,2.72,2.33,4.32,5.18,6.15,2.63,1.73,5.21,2.77,4.59,5.68-.41,1.93-8.96,4.34-9.67,4.19-.98-.26-1.56-.97-1.42-1.63,.05-.23,.19-.45,.43-.64,.38-.41,7.68-1.27,8.04-2.96-.17-2.44-11.07-4.26-9.58-11.3,1.09-5.17,7.95-8.33,11.59-10.26,.66-.35,1.46-.38,2.07-.25,.42,.09,.78,.26,1.03,.46,.55,.41,2.02,1.6,1.94,2.18l-.04,.19c-.1,.47-.46,.79-1.17,.64Z"/><path class="b" d="M444.79,36.39c-.38-.08-.76-.36-.9-.83-.22-.83,.08-2.93,.55-5.13,.5-2.35,1.18-4.9,1.47-6.26l.04-.19c.05-.23,.92-5.3-.06-5.51-.47-.1-4.52,3.75-7.94,8.77-3.98,5.83-4.44,9.17-5.66,8.91-.05,0-.08-.07-.18-.09-1.83-.88-1.19-1.77-.34-6.75,1.23-6.95,2.05-11.78,1.52-12.29-.04-.06-.08-.07-.13-.08-1.31-.28-6.66,6.88-9.03,13.01-.23,.64-.39,1.14-.48,1.57-.19,.89-.14,1.34-.21,1.67-.13,.61-1.08,.7-1.69,.57-.52-.11-1-.36-1.12-.73-.13-.32-.03-1.04,.18-2.02,.64-3.01,2.43-8.22,2.76-9.33,.19-.65,.36-1.25,.47-1.77,.35-1.64,.43-2.95,.61-3.8,.17-.8,.8-1.45,1.79-1.24,.33,.07,.63,.28,.81,.56,.47,.79,.65,1.12,.49,3.25,0,0,4.6-6.19,6.33-5.82,.75,.16,1.64,1.28,1.9,2.17,.32,.8-.04,4.6-1.37,12.52,0,0,8.62-12.21,12.15-11.95,1.03,.22,2.12,2.26,2.17,3.4,.09,1.64-.9,6.83-1.67,10.44-.4,1.88-.75,3.32-.83,3.7-.14,.66,.13,1.7-.02,2.4-.16,.75-.9,.99-1.6,.84Z"/><path class="b" d="M473.18,33.77c-.12,.12-.37,.12-.6,.07-.33-.07-.73-.25-.91-.58-.22-.34-.19-1.17-.19-1.17,0,0-3.83,1.64-6.74,1.03-2.35-.5-3.4-2.24-2.93-4.5,.67-3.15,4.34-6.83,7.96-6.07,2.58,.55,3.27,3.1,3.52,5.41,0,0,1.12-1.58,1.66-4.11,.58-2.72,.7-8.19-3.01-8.98-1.88-.4-3.98,.48-4.21,1.12-.04,.19-.19,.21-.42,.16-.52-.11-1.25-.61-1.11-1.46,.34-1.6,3.73-2.55,6.45-1.97,.99,.21,1.84,.59,2.49,1.21,2.81,2.71,2.96,6.66,2.18,10.32-1.05,4.98-3.86,9.44-4.13,9.53Zm-3.77-8.84c-2.35-.5-4.86,1.62-5.36,3.97-.22,1.03,.07,1.78,1.24,2.03,2.3,.49,6-1.48,6-1.48,0,0-.34-4.19-1.89-4.52Z"/><path class="b" d="M518.55,3.73c-.52,.82-4.82,13.26-6.58,20,0,0,1.71,.51,1.73,1.54,.03,.3,0,.49-.04,.68-.27,1.27-1.53,.95-3.26,1.27,0,0-.03,1.52-.3,2.83-.23,1.08-.63,2.03-1.42,1.86-2.18-.81-1.35-2.2-1.44-3.64,0,0-7.85,3.25-12.78,2.2-3.1-.66-4.46-3.3-3.83-6.26,1.19-5.64,9.75-10.6,14.07-9.68,.24,.05,.52,.11,.69,.2,3.59,1.59,3.92,3.97,4.67,6.44,0,0,5.24-15.28,5.77-17.77,.03-.14,.05-.23,.03-.39-.08-.8,0-1.37,.12-1.94,.16-.75,.49-1.17,1.06-1.05,1.41,.3,2.16,1.63,1.9,2.85-.06,.28-.18,.6-.38,.85Zm-13.14,13.66c-.34-.27-.75-.4-1.17-.49-3.8-.8-10.43,4.32-11.22,8.03-.33,1.55,.63,2.83,2.27,3.18,2.96,.63,7.99-1.35,12.2-2.72,0,0,.56-6.11-2.09-8Z"/><path class="b" d="M549.1,24.34c-1.15,.35-10.17,5.65-15.48,4.53-.75-.16-1.43-.45-1.98-.86-2.75-2.06-4.13-6.22-3.4-9.7,.12-.56,.29-1.12,.55-1.65,2.34-5.05,9.17-7.38,14.1-6.34,1.55,.33,2.84,.94,3.81,1.93,.12,.12,.15,.23,.12,.37-.25,1.17-4.88,3.34-7.89,4.37-3.29,1.17-6.21,.84-7.55,.66,0,0-.25,.49-.43,1.33-.21,.99-.28,2.49,.41,4.31,.56,1.54,1.21,2.86,3.28,3.29,3.71,.79,12.25-3.64,12.86-4.2,.39-.46,1.17-1.57,1.96-1.4,.71,.15,1.26,1,1.09,1.8-.14,.66-.76,1.26-1.46,1.56Zm-11.52-11.42c-2.65,.71-4.52,2.33-4.52,2.33,0,0,2.66,.42,5.95-.75,1.37-.45,2.28-.79,4.01-1.8-1.74-.37-3.56-.31-5.44,.22Z"/><path class="b" d="M8.53,141.16c-.85,.56-.91,1.04-1.52,.91-.75-.16-1.51-.96-1.32-1.9,.06-.28,.16-.51,.16-.51,0,0-.05,0-.14-.03-.33-.07-1.31-.33-1.5-1.05-.03-.1,.17-1.04,.47-2.45,.63-2.96,1.83-7.96,3.13-11.56,0,0-.57-.32-.47-1.47,.11-.52,.9-.99,1.67-1.17,0,0,2.82-5.44,3.68-9.53,.12-.56-.06-1.58,.11-2.38,.12-.56,.53-1.11,1.42-.93,.85,.18,1.5,1.94,1.04,4.15-.62,2.91-1.64,4.02-3.56,8.72,0,0,.23,.05,.61,.13,1.97,.42,8.53,2.15,9.62,7.19,.07,.36,.08,.8,0,1.18-.98,4.65-12.33,10.05-13.4,10.71Zm10.65-12.08c-.5-2.02-3.91-3.77-6.96-4.42-.52-.11-1.04-.17-1.52-.22,0,0-1.47,3.02-2.28,6.14-.22,.79-.38,1.59-.53,2.29-.79,3.76-.86,6.15-.86,6.15,0,0,11.28-4.63,12.19-8.9,.07-.33,.05-.68-.03-1.04Z"/><path class="b" d="M51.29,129.02c-.88,2.56-4.15,13.11-6.69,20.71-1.87,5.59-3.07,8.48-3.28,9.46-.04,.19-.06,.28-.02,.34,.14,.27,.42,1.27,.26,2.02-.15,.7-.74,1.17-1.96,.91-1.46-.31-1.72-1.15-1.56-1.9,.15-.71,.68-1.38,.88-1.38,.35-.02,2.06-5.31,4.99-14.55,2.02-6.29,3.07-9.65,4.7-16.67,0,0-10.36,8.6-13.17,7.96-1.03-.22-1.1-1.51-.72-3.34,.56-2.63,2.06-6.48,3.48-10.21,.21-.54,1.12-4.37,2.53-4.08,.52,.11,1.4,1.03,1.29,1.79-1,3.81-3.48,7.16-4.33,11.2-.06,.28-.12,.81,.21,.88,1.17,.25,6-3.54,10.75-7.2,.77-.62,1.27-2.04,2.25-1.83,.14,.03,.33,.07,.5,.2,.69,.44,.67,2.4,.29,4.18-.11,.52-.27,1.02-.41,1.48Z"/><path class="b" d="M111.66,125.81c-.89,2.56-4.15,13.11-6.69,20.72-1.87,5.59-3.07,8.48-3.28,9.46-.04,.19-.06,.28-.02,.34,.14,.27,.42,1.27,.26,2.02-.15,.7-.74,1.17-1.96,.91-1.46-.31-1.72-1.15-1.56-1.9,.15-.71,.68-1.38,.88-1.38,.35-.02,2.05-5.31,4.99-14.55,2.02-6.29,3.07-9.65,4.7-16.67,0,0-10.36,8.6-13.17,7.96-1.03-.22-1.1-1.51-.72-3.34,.56-2.63,2.06-6.48,3.48-10.21,.21-.54,1.12-4.38,2.53-4.08,.52,.11,1.4,1.03,1.29,1.79-1,3.81-3.48,7.16-4.33,11.2-.06,.28-.12,.81,.21,.88,1.17,.25,6-3.54,10.75-7.2,.77-.62,1.26-2.04,2.25-1.83,.14,.03,.33,.07,.5,.2,.69,.44,.67,2.4,.29,4.18-.11,.52-.27,1.02-.41,1.48Z"/><path class="b" d="M128.39,134.71c-3.33-.71-4.22-5.11-3.56-8.21,.26-1.22,.75-2.39,1.58-3.54,3.89-5.41,7.14-7.32,9.87-6.75,1.88,.4,5.48,2.88,4.91,8.1-.07,.57-.12,1.05-.23,1.57-1.42,6.72-8.62,9.66-12.56,8.82Zm-.35-9.49c-.3,.48-.53,1.11-.67,1.77-.36,1.69-.11,4.93,2.05,5.39,2.16,.46,5.67-1.5,6.92-3,1.13-1.38,2.04-2.91,2.39-4.55,.44-2.07-.05-5.31-2.64-5.86-.38-.08-4.15-.34-8.04,6.25Z"/><path class="b" d="M161.15,133.22c-.57,.13-1.11,.16-1.54,.07-5.54-1.17-2.13-18.02-1.81-19.76,.24-1.13,.74-1.41,1.26-1.3l.23,.05c1.03,.22,1.16,1.47,1.03,2.08-.14,.66-.32,1.26-.44,1.87-1.59,7.51-1.21,13.83,.39,14.16,.28,.06,.66-.11,1.11-.6,3.22-3.64,5.63-11.08,5.94-12.29,.14-.66,.4-1.68,1.86-1.37,1.22,.26,.92,2.16,.92,2.16-.19,.89-5.85,14.22-8.95,14.94Z"/><path class="b" d="M203.38,116.56c-.61-.13-1.04-.66-1.79-.82-.33-.07-.77-.06-1.3,.12-3.33,1.11-7.74,4.35-12.21,8.75-2.29,2.26-2.45,6.01-3.23,6.68-.36,.32-.77,.38-1.14,.3-.47-.1-.89-.43-1.15-.83-.22-.34-.23-.78-.1-1.39,.3-1.41,1.37-3.69,2.32-7.26,.31-1.21,.57-2.23,.77-3.17,1.24-5.87,.42-7.08,.54-7.64,.11-.52,1.17-.88,1.64-.78,.33,.07,.63,.28,.93,.69,.57,.81,.48,1.92-.03,4.8-.3,1.65-.49,2.55-1.16,5.69,0,0,4.15-3.64,7.75-5.77,2.09-1.28,4.47-3.03,7.29-2.43,.66,.14,1.34,.38,2.08,.83,.26,.15,.52,.8,.4,1.36-.13,.61-.91,1.04-1.61,.89Z"/><path class="b" d="M254.7,129.54c-.12,.12-.37,.12-.6,.07-.33-.07-.73-.25-.91-.58-.22-.34-.19-1.17-.19-1.17,0,0-3.83,1.64-6.74,1.03-2.35-.5-3.4-2.24-2.93-4.5,.67-3.15,4.34-6.83,7.96-6.07,2.58,.55,3.27,3.1,3.52,5.41,0,0,1.12-1.58,1.66-4.11,.58-2.72,.7-8.19-3.01-8.98-1.88-.4-3.98,.48-4.21,1.12-.04,.19-.19,.21-.43,.16-.52-.11-1.25-.61-1.11-1.46,.34-1.6,3.73-2.55,6.45-1.97,.99,.21,1.84,.59,2.49,1.21,2.81,2.71,2.96,6.66,2.18,10.33-1.05,4.98-3.86,9.44-4.13,9.53Zm-3.77-8.85c-2.35-.5-4.86,1.62-5.35,3.97-.22,1.03,.06,1.78,1.24,2.03,2.3,.49,6-1.48,6-1.48,0,0-.34-4.19-1.89-4.52Z"/><path class="b" d="M276.97,126.77c-.71-.15-1.31-1.01-1.34-1.56,0,0-1.54,4.04-2.9,10.48l-.66,3.1c-.71,3.38-1.02,5.52-.98,5.78,.07,.36,.11,.66,.05,.94-.17,.8-.8,1.25-1.42,1.12-.99-.21-1.43-1.38-1.23-2.32,.07-.33,.18-.6,.37-.81,.06-.04,.09-.18,.15-.46,.22-1.03,.49-3.72,1.4-8,.26-1.22,.59-2.57,.96-4.07,2.49-9.68,3.81-12.88,6.73-21.15,0,0-1.1-.58-.88-1.66,.3-1.41,3.07-1.51,3.77-1.36,3.28,.74,8.98,5.33,7.82,10.83-.87,4.13-10.9,9.32-11.84,9.12Zm4.46-17.16s-1.53,3.5-2.53,6.14c-1.01,2.68-2.96,8.4-2.96,8.4,0,0,8.04-2.03,10.25-6.91,.1-.22,.12-.32,.16-.51,.49-2.3-2.24-6.36-4.92-7.12Z"/><path class="b" d="M305.49,125.25c-.71-.15-1.31-1.01-1.34-1.56,0,0-1.54,4.04-2.9,10.48l-.66,3.1c-.72,3.38-1.02,5.52-.98,5.78,.07,.36,.11,.66,.05,.94-.17,.8-.8,1.25-1.41,1.12-.99-.21-1.43-1.38-1.23-2.32,.07-.33,.18-.6,.37-.81,.06-.04,.09-.18,.15-.46,.22-1.03,.49-3.72,1.4-8,.26-1.22,.59-2.57,.96-4.07,2.49-9.68,3.81-12.88,6.73-21.15,0,0-1.11-.58-.88-1.66,.3-1.41,3.07-1.51,3.77-1.36,3.28,.74,8.98,5.33,7.82,10.83-.87,4.13-10.9,9.32-11.84,9.12Zm4.46-17.16s-1.53,3.5-2.53,6.14c-1.01,2.68-2.96,8.4-2.96,8.4,0,0,8.04-2.03,10.24-6.91,.1-.22,.12-.32,.16-.51,.49-2.3-2.24-6.36-4.92-7.12Z"/><path class="b" d="M351.21,119.01c-1.15,.35-10.17,5.65-15.48,4.53-.75-.16-1.43-.45-1.98-.86-2.75-2.06-4.13-6.22-3.39-9.7,.12-.56,.29-1.12,.55-1.65,2.34-5.05,9.17-7.38,14.1-6.34,1.55,.33,2.84,.94,3.81,1.93,.12,.12,.15,.23,.12,.37-.25,1.17-4.88,3.34-7.89,4.37-3.29,1.17-6.21,.84-7.55,.66,0,0-.25,.49-.43,1.33-.21,.99-.28,2.49,.41,4.31,.56,1.54,1.21,2.86,3.28,3.29,3.71,.79,12.25-3.64,12.86-4.2,.39-.46,1.17-1.57,1.96-1.4,.7,.15,1.26,1,1.09,1.8-.14,.66-.76,1.26-1.46,1.56Zm-11.52-11.42c-2.65,.71-4.52,2.33-4.52,2.33,0,0,2.66,.42,5.95-.75,1.37-.45,2.28-.79,4.01-1.8-1.74-.37-3.57-.31-5.44,.22Z"/><path class="b" d="M376.13,123.07c-.12,.12-.37,.12-.6,.07-.33-.07-.73-.25-.91-.58-.22-.34-.19-1.17-.19-1.17,0,0-3.83,1.64-6.74,1.03-2.35-.5-3.4-2.24-2.92-4.5,.67-3.15,4.34-6.83,7.96-6.07,2.58,.55,3.27,3.1,3.52,5.41,0,0,1.12-1.58,1.66-4.11,.58-2.72,.7-8.19-3.01-8.98-1.88-.4-3.98,.48-4.21,1.12-.04,.19-.19,.21-.43,.16-.52-.11-1.25-.61-1.11-1.46,.34-1.6,3.73-2.55,6.45-1.97,.99,.21,1.84,.59,2.49,1.21,2.81,2.71,2.96,6.66,2.18,10.32-1.05,4.98-3.86,9.44-4.12,9.53Zm-3.77-8.85c-2.35-.5-4.86,1.62-5.35,3.97-.22,1.03,.07,1.78,1.24,2.03,2.3,.49,6-1.48,6-1.48,0,0-.34-4.19-1.89-4.52Z"/><path class="b" d="M415.37,105.26c-.61-.13-1.04-.66-1.79-.82-.33-.07-.77-.06-1.3,.12-3.33,1.11-7.74,4.35-12.2,8.75-2.29,2.26-2.45,6.01-3.23,6.68-.36,.32-.77,.38-1.14,.3-.47-.1-.89-.43-1.15-.83-.22-.34-.23-.78-.1-1.39,.3-1.41,1.37-3.69,2.32-7.26,.31-1.21,.57-2.23,.77-3.17,1.24-5.87,.42-7.08,.54-7.64,.11-.52,1.17-.88,1.64-.78,.33,.07,.63,.28,.93,.69,.57,.81,.48,1.92-.03,4.8-.3,1.65-.49,2.55-1.16,5.69,0,0,4.16-3.64,7.75-5.77,2.08-1.28,4.47-3.03,7.29-2.43,.66,.14,1.34,.38,2.08,.83,.26,.15,.52,.8,.4,1.36-.13,.61-.91,1.03-1.61,.89Z"/><path class="b" d="M436.91,119.83c-.12,.12-.37,.12-.6,.07-.33-.07-.73-.25-.91-.58-.22-.34-.19-1.17-.19-1.17,0,0-3.83,1.64-6.74,1.03-2.35-.5-3.4-2.24-2.92-4.5,.67-3.15,4.34-6.83,7.96-6.07,2.58,.55,3.27,3.1,3.52,5.41,0,0,1.12-1.58,1.66-4.11,.58-2.72,.7-8.19-3.01-8.98-1.88-.4-3.98,.48-4.21,1.12-.04,.19-.19,.21-.42,.16-.52-.11-1.25-.61-1.11-1.46,.34-1.6,3.73-2.55,6.45-1.97,.99,.21,1.84,.59,2.49,1.21,2.81,2.71,2.96,6.66,2.18,10.32-1.05,4.98-3.86,9.44-4.12,9.53Zm-3.77-8.85c-2.35-.5-4.86,1.62-5.35,3.97-.22,1.03,.07,1.78,1.24,2.03,2.3,.49,6-1.48,6-1.48,0,0-.34-4.19-1.89-4.52Z"/><path class="b" d="M467.92,121.18c-.94-.2-1.93-1.29-1.67-2.56,.07-.33,.27-.58,.37-1.05,.21-.99,.21-3.29,1.1-7.52l1.01-4.55c.12-.56,.88-4.38,.31-4.5-.84-.18-5.69,5.57-9.02,10.85-2.21,3.51-2.42,4.74-3.08,5.04-.25,.04-.61,.12-.94,.05-.33-.07-.67-.29-.91-.78-.12-.37-.11-.86,.05-1.61,.32-1.5,1.18-4.17,2.34-9.22,1.03-4.4,2.17-7.69,2.4-8.33,.31-.77,.79-.96,1.26-.86,.61,.13,1.14,.63,1.34,1.07,.1,.22,.1,.46,.02,.84-.22,1.03-1.07,2.72-1.64,5.44-.29,1.36-.5,1.91-.63,2.52-.05,.23-.11,.52-.14,.9,0,0,7.26-9.75,10.18-9.13l.19,.04c2.11,.94,1.42,5.35,.13,11.46l-1.14,5.4c-.4,1.88-.53,2.73-.5,3.08,.19,.73,.47,1.72,.31,2.47-.12,.56-.62,1.09-1.33,.95Z"/><path class="b" d="M510.52,109.99c-.14,.41-13.56,6.11-21.21,4.49-2.77-.59-5.54-2.79-4.85-6.08,1.15-5.45,9.97-12.12,14.19-11.87,.29,.01,.57,.07,.81,.12,1.13,.24,1.5,.81,1.36,1.46-.18,.85-1.46,2.05-2.36,1.86-.47-.1-.94-.44-1.5-.56-.14-.03-.28-.06-.38-.03-1.15,.1-8.58,5.06-9.44,9.14-.42,1.97,.94,3.44,2.96,3.86,5.92,1.25,18.7-3.75,19.26-3.83,.15-.02,.3-.03,.44,0,.56,.12,.88,.73,.77,1.24l-.04,.19Z"/><path class="b" d="M542.59,108.81c-1.15,.35-10.17,5.65-15.48,4.53-.75-.16-1.43-.45-1.98-.86-2.75-2.06-4.13-6.22-3.4-9.7,.12-.56,.29-1.12,.55-1.65,2.34-5.05,9.17-7.38,14.1-6.34,1.55,.33,2.84,.94,3.81,1.93,.12,.12,.15,.23,.12,.37-.25,1.17-4.88,3.34-7.89,4.37-3.29,1.17-6.21,.84-7.55,.66,0,0-.25,.49-.43,1.33-.21,.99-.28,2.49,.41,4.31,.56,1.54,1.21,2.86,3.28,3.29,3.71,.79,12.25-3.64,12.86-4.2,.39-.46,1.17-1.57,1.96-1.4,.7,.15,1.26,1,1.09,1.8-.14,.66-.76,1.26-1.46,1.56Zm-11.52-11.42c-2.65,.71-4.52,2.33-4.52,2.33,0,0,2.66,.42,5.95-.75,1.37-.45,2.28-.79,4.01-1.8-1.74-.37-3.56-.31-5.44,.22Z"/></svg>