<?xml version="1.0" encoding="UTF-8"?><svg id="a" xmlns="http://www.w3.org/2000/svg" width="93.96" height="112.94" viewBox="0 0 93.96 112.94"><path d="M79.95,.51c-12.71,3.59-18.48,16.32-22.57,27.64-2.81,7.77-5.06,15.72-6.76,23.78-2.09-4.39-4.91-8.43-8.59-11.8-7.95-7.28-19.41-11-30.01-8.15-4.57,1.23-10.58,4.32-11.73,9.36-1.18,5.16,1.51,11.41,3.72,15.94,5.12,10.49,13.72,18.9,22.83,25.97,11.91,9.25,25.07,16.83,35.97,27.35,.29,.28,.74,.36,1.28,.29-.2,.49-.39,.97-.59,1.46-.58,1.43,3.45-.18,3.69-.29,1.59-.75,3.94-1.98,4.65-3.72,11-27.16,22.41-55.5,22.12-85.29-.08-8.63-.81-26.26-14-22.53ZM9.33,35.49c.15,.13,.04,.25-.18,.37,.09-.24,.16-.39,.18-.37Zm-.82,2.33s.16-.53,.34-1.09c.77-.12,1.59-.34,2.27-.38,1.29-.08,2.58-.05,3.86,.07-.84,.63-1.41,1.3-1.41,1.89v16.59c-.44-.79-.87-1.59-1.27-2.41-2.02-4.12-4.62-9.97-3.79-14.67Zm12.1,27.1c-.15-.17-.29-.35-.44-.53,1.01-.7,1.73-1.46,1.73-2.12v-24.34c2.17,.73,4.26,1.68,6.24,2.84,.3,10.88,.6,21.76,.89,32.64-2.97-2.63-5.8-5.43-8.42-8.49Zm16.66,15.19c.23-.31,.36-.62,.36-.9-.28-10.37-.57-20.75-.85-31.12,5.66,6.63,8.85,15.16,9.98,23.82,.08,.96,.18,1.92,.29,2.88,.04,.49,.08,.98,.11,1.47,0,.11,.04,.2,.11,.27,.52,3.62,1.29,7.22,2.33,10.77,.35,1.19,8.96-2.47,8.29-4.78-1.05-3.61-1.82-7.25-2.33-10.92,.96-12.15,3.07-24.18,6.43-35.9,.06-.2,.12-.4,.18-.6-.16,9.69-.33,19.39-.49,29.08-.1,6.03-.2,12.06-.31,18.09-.08,4.61-1.05,10.31,1.71,14.35,1.2,1.76,7.39-2.75,8.05-3.89,.16-.28,.31-.55,.45-.83-1.33,3.54-2.7,7.07-4.1,10.59-9.42-8.23-20.21-14.84-30.19-22.37Zm35.9,7.4c.12-.54,.21-1.1,.28-1.69,.07-.66-1.87-.28-3.9,.56-.33-3.18,.11-6.63,.16-9.58,.1-6.03,.2-12.06,.31-18.09,.2-11.82,.4-23.64,.6-35.46,.01-.88-2.61-.23-4.92,.92,.74-2.05,1.51-4.09,2.33-6.11,1.39-3.39,5.17-13.93,9.9-12.62,1.54,.43,2.75,1.37,3.71,2.57-2.41,.93-5.27,2.56-5.09,4.13,2.05,18.22,2.59,36.55,1.63,54.86-.02,.42,.61,.47,1.54,.28-.38,1.38-.78,2.75-1.18,4.12-1.62,5.42-3.43,10.78-5.36,16.1Z"/></svg>