<?xml version="1.0" encoding="UTF-8"?><svg id="a" xmlns="http://www.w3.org/2000/svg" width="550.73" height="159.12" viewBox="0 0 550.73 159.12"><defs><style>.b{fill:none;stroke:#000111;stroke-miterlimit:10;}</style></defs><polyline class="b" points="6.85 36.08 1.01 53.37 17.01 40.87 5.21 79.87"/><polygon class="b" points="39.87 38.19 34.56 41.83 31.85 46.48 31.3 50.99 33.36 54.11 36.08 54.57 40.96 52.41 44.04 48.82 45.29 44.59 44.53 39.7 41.61 38.19 39.87 38.19"/><polyline class="b" points="64.61 32.97 63.29 40.79 62.75 44.81 63.68 50.66 64.61 52.72 65.79 52.72 68.06 51.2 69.8 48.38 71.75 44.16 73.49 39.7 74.51 36.87"/><polyline class="b" points="92.91 31.27 91.59 41.83 88.55 52.2 92.35 43.53 101.79 36.9 106.34 35.16 110.21 36.47"/><polyline class="b" points="158.31 16.47 148.91 49.67 153.61 38.84 158.55 35.37 164.03 32.95 166.63 33.07 168.15 34.94 168.15 37.6 167.17 43.82 165.61 51.17"/><polyline class="b" points="186.69 33.84 188.75 34.11 193.16 33.84 196.77 32.95 200.35 30.72 196.77 29.18 193.16 29.18 188.21 31.65 185.71 33.54 184.52 35.95 184.52 38.95 185.5 41.89 187.45 44.7 190.16 45.78 194.93 45.24 199.49 43.53 203.17 41.74 205.19 39.41"/><polyline class="b" points="222.69 28.11 225.29 26.34 228 26.34 230.93 27.23 232.23 30.17 232.77 34.11 231.69 38.63 230.28 41.89 227.73 43.53 223.58 44.7 220.74 44.7 219 42.85 219 40.68 221.39 37.6 223.58 36.57 225.89 36.57 227.57 37.63 228.44 41.12 229.09 43.82 229.21 46.57"/><polygon class="b" points="248.42 42.31 247.85 35.95 247.09 28.65 247.76 22.89 250.34 18.68 251.6 18.24 254.24 19.98 255.76 22.89 255.76 25.4 255.16 29.18 253.37 32.02 250.88 35.05 254.78 31.25 259.52 29.18 263.89 27.35 268.23 26.34 270.63 26.63 271.81 28.11 271.05 30.28 266.61 34.72 261.81 37.63 255.16 40.43 249.44 42.75 248.42 42.31"/><line class="b" x1="255.76" y1="24.31" x2="247.36" y2="31.29"/><polyline class="b" points="264.6 27.98 251.41 39.49 252.58 40.43"/><polyline class="b" points="270.03 28.11 268.02 31.29 265.63 33.84 263.68 35.37 260.97 37.48 259.07 38.78"/><polyline class="b" points="279.29 25.23 286.88 23.66 292.2 23.66 295.23 23.66 300 24.45 301.71 25.27"/><polyline class="b" points="294.01 9.77 293.17 14.55 285.15 39.49 285.15 41.89 285.15 42.75 284.91 43.47"/><line class="b" x1="351.01" y1="5.4" x2="347.01" y2="12.67"/><polyline class="b" points="346.81 20.37 342.51 35.95 342.41 39.27"/><polyline class="b" points="379.91 17.67 376.99 15.85 371.54 17.67 366.91 21.61 364.74 25.23 364.74 28.36 368.42 31.29 372.32 33.54 374.06 35.95 373.85 37.6 370.05 39.27 364.74 40.68"/><polyline class="b" points="426.61 14.77 426 18.78 423.83 25.07 421.81 33.57 425.89 22.93 429.15 18.67 432.4 15.04 433.92 13.62 434.84 15.04 433.27 25.94 432.11 35.87 435.98 27.68 444.33 17.81 446.39 16.59 447.47 17.81 447.47 22.93 445.96 30.28 445.3 31.68 444.91 36.17"/><polyline class="b" points="466.88 15.04 468.83 13.62 472.2 13.62 475.02 14.33 476.1 16.59 476.64 19.76 476.64 22.93 475.12 27.13 473.17 29.73 470 31.25 467.68 31.68 464.05 31.68 462.87 29.63 464.05 26.16 466.02 24.53 468.29 23.44 470 23.44 472.2 24.9 472.41 27.68 473.31 33.57"/><polyline class="b" points="518.11 .15 508.07 31.37 509.71 23.6 508.07 17.16 504.85 15.04 500.35 15.76 496.16 18.57 493.05 21.49 491.93 24.9 492.58 27.68 494.64 29.19 498.44 29.41 505.49 27.68 511.67 24.9 513.71 25.67"/><polyline class="b" points="531.4 15.76 534 16.59 538.88 15.7 543.21 13.62 545.61 12.2 542.03 11.3 537.58 11.3 534.65 12.2 532.05 13.94 530.1 17.16 529.56 20.84 530.64 24.2 532.49 26.59 534.87 27.46 537.58 27.46 540.62 26.37 545.17 24.64 548.42 22.93 550.41 21.3"/><polyline class="b" points="101.21 114.77 95.91 132.37 110.46 121.9 111.91 119.87 100.11 158.97"/><polygon class="b" points="135.51 117.35 131.71 118.67 127.7 123.53 126.08 127.32 126.08 131.01 129.22 133.11 133.05 133.11 137.35 130.04 139.74 126.02 140.28 122.53 139.41 119.19 135.51 117.35"/><polyline class="b" points="159.41 112.07 158.28 117.35 157.74 124.51 158.57 130.25 160.02 132.25 162.18 130.69 165.11 126.67 168.26 120.06 169.31 115.97"/><polyline class="b" points="187.12 110.5 187.67 114.42 186.15 121.58 183.48 131.32 186.26 124.18 191.68 119.63 198.73 114.85 202.52 114.2 205.21 115.57"/><polyline class="b" points="248.17 110.63 251.45 108.78 254.03 108.78 256.41 110.63 257.61 112.25 258.36 115.12 258.36 118 256.52 123.48 254.89 125.59 250.67 127.11 247.3 127.65 244.92 126.55 244.92 123.87 246.65 120.4 249.18 119.08 252.18 119.3 253.38 121.14 253.92 123.87 254.57 127.65 254.81 129.27"/><polyline class="b" points="277.5 108.78 280.05 107.9 281.68 107.9 284.17 109.37 286.47 111.6 287.53 114.42 287.53 116.62 286.47 119.03 283.63 121.58 279.94 123.48 275.81 124.97"/><polyline class="b" points="279.94 108.78 277.23 115.94 272.79 130.04 269.81 146.37"/><polyline class="b" points="305.81 106.17 308.68 106.17 312.04 107.16 314.97 109.87 316.59 113.92 315.94 116.43 313.34 119.03 309.22 121.69 304.51 123.87"/><polyline class="b" points="308.35 107.26 303.36 121.79 300.55 131.55 298.31 144.77"/><polyline class="b" points="333.4 110.3 337.3 110.95 344.57 108.89 347.82 106.9 344.46 105.42 339.91 105.42 335.31 107.87 332.64 110.19 331.56 113.34 331.56 116.98 333.73 120.05 336 121.79 338.61 122.37 343.05 121.14 347.82 119.08 351.83 116.98 352.77 116.43"/><polyline class="b" points="369.94 104.4 372.44 102.49 375.91 102.49 378.62 104.74 379.59 108.32 379.59 112.79 378.18 116.98 376.23 118.98 372.22 120.82 369.94 121.25 367.05 120.71 365.93 118.22 367.05 115.02 370.05 112.9 372.9 112.69 374.31 113.9 376.12 120.21 375.61 122.97"/><polyline class="b" points="398.96 99.27 399.65 101.5 398.03 111.38 395.91 120.17 398.89 112.23 403.67 108.37 410.71 103.58 413.86 103.04 417.21 104.27"/><polyline class="b" points="430.56 101.5 433.7 99.27 436.63 99.27 438.91 100.38 440.42 104.01 440.42 108.93 438.91 113.9 436.41 116.37 432.29 117.78 428.82 117.78 426.76 115.94 427.3 112.73 430.56 109.63 432.94 109.63 435.01 110.19 435.65 112.23 436.09 115.18 436.41 117.78 436.63 119.08"/><polyline class="b" points="461.21 95.77 456.11 116.57 459.73 108.93 467.64 99.54 470.41 97.37 470.41 103.14 468.94 111.82 467.97 116.57 468.01 120.97"/><polyline class="b" points="500.48 98.65 498.22 98.12 495.62 98.12 491.71 100.65 488.89 103.14 486.29 106.72 485.75 108.93 486.62 111.06 488.35 112.69 490.63 113.25 493.12 113.25 498.11 112.69 504.29 111.17 510.62 108.93"/><polyline class="b" points="524.79 100 529.02 100.65 533.79 99.54 539.1 96.7 535.52 95.44 531.18 95.44 527.82 96.7 524.79 98.7 523.7 101.52 523.05 104.34 523.59 107.7 525.65 110.52 527.71 111.82 529.77 111.82 532.93 111.06 536.71 109.98 540.4 108.02 542.68 107.05 543.87 105.68"/></svg>